<?xml version="1.0" standalone="no"?>
<!DOCTYPE svg PUBLIC "-//W3C//DTD SVG 20010904//EN"
 "http://www.w3.org/TR/2001/REC-SVG-20010904/DTD/svg10.dtd">
<svg version="1.0" xmlns="http://www.w3.org/2000/svg"
 width="512.000000pt" height="512.000000pt" viewBox="0 0 512.000000 512.000000"
 preserveAspectRatio="xMidYMid meet">
<metadata>
Created by potrace 1.14, written by Peter Selinger 2001-2017
</metadata>
<g transform="translate(0.000000,512.000000) scale(0.100000,-0.100000)"
fill="#000000" stroke="none">
<path d="M802 5112 c-54 -16 -160 -132 -149 -165 2 -6 -20 -31 -50 -56 -59
-49 -78 -93 -67 -159 6 -36 2 -46 -31 -89 -41 -53 -42 -81 -5 -133 18 -25 19
-38 14 -98 -4 -43 -2 -82 5 -104 10 -31 9 -40 -10 -72 -20 -35 -21 -38 -5 -86
20 -61 20 -86 1 -140 -15 -41 -12 -83 7 -107 6 -8 6 -32 -1 -65 -6 -29 -15
-75 -19 -102 -8 -54 -44 -92 -75 -80 -32 12 -79 91 -75 127 3 27 7 32 33 35
65 7 76 81 20 131 -45 39 -105 43 -156 8 -31 -21 -36 -30 -51 -107 -23 -113
-23 -153 1 -174 10 -9 43 -65 72 -123 30 -59 70 -123 89 -143 19 -21 45 -49
57 -63 18 -21 33 -26 96 -32 84 -8 109 2 143 59 9 16 37 48 61 71 23 23 43 50
43 61 0 10 12 51 26 89 14 39 34 94 44 124 11 30 20 80 20 112 0 53 16 182 27
219 7 23 39 -49 63 -143 24 -88 28 -225 10 -286 -7 -27 -5 -50 12 -107 l21
-74 -22 -65 c-26 -81 -26 -103 -1 -245 15 -80 20 -149 19 -239 -2 -114 1 -133
24 -196 15 -38 37 -79 50 -90 29 -26 57 -85 57 -122 1 -37 34 -111 66 -144 16
-17 22 -29 15 -33 -13 -9 -15 -165 -2 -198 10 -25 61 -83 78 -89 7 -3 -2 -33
-26 -81 -42 -85 -57 -146 -67 -258 -6 -81 8 -143 48 -204 35 -54 127 -112 207
-132 l72 -17 -5 -36 c-4 -20 -10 -56 -16 -81 -5 -25 -9 -112 -10 -193 0 -134
3 -156 26 -225 107 -318 310 -540 659 -721 89 -46 110 -53 190 -61 154 -16
430 -12 494 6 157 46 221 69 276 99 78 44 210 163 275 248 70 93 160 269 210
412 38 108 43 132 47 240 5 113 -5 228 -22 268 -6 15 0 17 57 17 89 0 167 39
235 118 60 70 83 124 83 200 0 110 -30 184 -113 273 -30 32 -32 38 -20 55 8
11 19 37 24 60 8 32 22 49 60 78 27 20 49 41 49 46 0 5 15 16 33 24 79 32 100
100 68 216 -31 114 -22 195 35 322 24 53 46 114 50 137 4 26 14 46 29 55 15
10 25 29 29 60 4 24 20 64 36 88 17 24 30 56 30 74 0 17 8 38 19 48 30 27 31
51 4 105 -22 47 -23 53 -8 73 20 30 19 51 -4 72 -24 22 -18 41 20 60 28 14 29
13 66 -30 103 -120 92 -114 178 -114 l77 0 59 61 c42 42 74 90 109 158 26 54
60 111 74 128 30 36 31 51 11 158 -21 110 -22 111 -59 135 -97 59 -225 -28
-176 -121 7 -12 21 -19 39 -19 25 0 29 -5 34 -32 5 -39 -10 -72 -52 -112 -29
-28 -31 -28 -56 -12 -30 20 -28 14 -50 134 -13 72 -14 96 -5 107 8 10 10 32 5
67 -8 68 -8 151 0 208 5 37 3 50 -13 70 -17 21 -17 27 -6 49 16 30 18 109 4
145 -7 20 -4 32 15 61 35 50 33 97 -5 145 -26 33 -30 46 -30 100 0 74 -16 106
-77 151 -34 26 -43 39 -43 63 0 23 -12 42 -54 82 -68 66 -123 86 -167 60 -25
-15 -38 -16 -82 -7 -81 15 -193 14 -227 -4 -16 -8 -37 -15 -46 -15 -10 0 -51
-16 -91 -35 -61 -29 -77 -41 -89 -70 -9 -23 -21 -35 -33 -35 -26 0 -57 -41
-65 -85 -4 -19 -11 -35 -17 -35 -16 0 -60 -52 -75 -87 -8 -19 -22 -33 -31 -33
-9 0 -24 -7 -34 -16 -17 -15 -20 -15 -45 5 -15 12 -37 21 -50 21 -37 0 -54 11
-54 36 0 26 -55 94 -76 94 -8 0 -14 10 -14 25 0 76 -109 172 -161 144 -15 -7
-20 -20 -19 -42 3 -56 3 -56 -29 -44 -37 14 -53 2 -70 -53 -13 -45 -31 -45
-31 0 0 42 -53 100 -91 100 -22 0 -32 -7 -41 -25 -10 -23 -45 -44 -97 -60 -32
-10 -91 20 -116 59 -11 17 -33 37 -50 45 -16 7 -52 25 -78 38 -31 16 -57 23
-72 19 -13 -3 -37 -3 -53 0 -26 5 -31 12 -34 38 -3 29 -5 31 -51 34 -81 5
-169 -54 -151 -102 3 -8 -4 -24 -15 -35 -12 -12 -21 -32 -21 -45 0 -18 -7 -25
-30 -29 -39 -8 -48 -44 -26 -112 21 -68 21 -72 -9 -79 -14 -4 -28 -13 -31 -21
-5 -12 -10 -12 -31 2 -38 25 -123 21 -163 -9 -30 -22 -32 -22 -44 -5 -7 9 -20
17 -29 17 -9 0 -25 17 -36 38 -10 20 -35 52 -55 70 -22 20 -36 42 -36 56 0 32
-37 76 -64 76 -16 0 -24 8 -31 33 -8 27 -22 38 -85 70 -41 20 -86 37 -100 37
-14 0 -34 7 -45 16 -23 17 -139 19 -223 3 -44 -9 -57 -8 -77 5 -25 17 -45 18
-83 8z m1383 -92 c15 -16 41 -32 57 -35 19 -5 33 -16 39 -32 9 -25 24 -24 24
0 0 7 19 13 43 15 40 3 47 -1 86 -40 37 -37 43 -48 39 -75 -3 -18 -11 -38 -19
-44 -23 -19 -17 -49 12 -60 35 -13 56 -5 75 28 15 28 20 30 166 59 12 2 35 15
52 29 28 24 31 25 39 8 20 -39 20 -100 1 -129 -25 -38 -25 -74 -1 -74 35 0 32
-14 -9 -56 -25 -26 -37 -44 -30 -48 23 -14 10 -38 -29 -53 -38 -15 -55 -43
-27 -43 6 0 -5 -16 -26 -35 -38 -36 -58 -39 -112 -14 -11 5 -32 13 -47 19 -20
7 -28 16 -28 32 1 31 17 49 72 81 62 36 99 86 106 142 2 25 2 45 0 45 -3 0
-18 -18 -33 -40 -21 -30 -47 -50 -99 -74 -45 -22 -77 -45 -88 -63 l-17 -28 -1
55 c0 51 -4 58 -43 100 -27 29 -54 74 -77 129 -32 77 -39 87 -79 108 -61 32
-83 30 -43 -4 25 -22 37 -45 52 -101 21 -75 35 -104 78 -156 20 -25 23 -36 17
-74 -4 -25 -9 -51 -12 -58 -3 -8 1 -14 10 -14 8 0 17 6 20 13 3 6 4 2 4 -10
-1 -12 -11 -26 -24 -32 -12 -6 -31 -28 -42 -49 -29 -58 -84 -102 -126 -102
-37 0 -43 -8 -23 -28 25 -25 98 -2 141 45 12 14 30 33 39 44 10 11 24 16 34
12 12 -4 15 -1 12 13 -2 12 -12 19 -26 18 -29 -1 -28 12 2 20 24 6 36 30 36
74 0 12 -5 22 -11 22 -7 0 -9 13 -4 38 5 33 2 43 -25 77 -39 49 -51 71 -61
110 -4 16 -12 45 -18 63 -5 18 -6 30 -2 27 5 -2 14 -26 21 -52 16 -59 47 -123
60 -123 5 0 21 -16 36 -36 21 -27 27 -45 26 -80 -2 -32 2 -46 13 -50 8 -4 15
-15 15 -25 0 -31 15 -22 29 17 11 30 23 41 70 61 31 14 65 33 76 42 20 16 20
16 1 -6 -10 -12 -38 -32 -62 -43 -55 -27 -65 -40 -75 -98 -6 -29 -18 -54 -31
-66 -13 -10 -32 -41 -44 -70 -16 -42 -25 -52 -47 -54 -18 -2 -32 -13 -41 -31
-24 -46 -35 -50 -101 -39 -33 5 -64 13 -68 17 -5 5 -10 38 -10 74 -2 48 -7 70
-21 86 -18 20 -18 22 -3 39 27 30 21 70 -16 107 l-32 32 40 9 c59 13 60 43 1
72 -45 21 -48 26 -59 92 -2 14 -8 33 -12 43 -5 13 -2 17 14 17 27 0 55 59 46
99 -10 48 8 114 35 128 33 17 32 17 65 -17z m-1078 14 c-3 -3 -12 -4 -19 -1
-8 3 -5 6 6 6 11 1 17 -2 13 -5z m2900 0 c-3 -3 -12 -4 -19 -1 -8 3 -5 6 6 6
11 1 17 -2 13 -5z m-3149 -43 c-12 -20 -78 -51 -107 -51 -14 0 -18 5 -14 20 8
30 35 45 86 46 40 1 44 -1 35 -15z m327 9 c-3 -5 -12 -10 -18 -10 -7 0 -6 4 3
10 19 12 23 12 15 0z m2735 0 c8 -5 11 -10 5 -10 -5 0 -17 5 -25 10 -8 5 -10
10 -5 10 6 0 17 -5 25 -10z m415 -10 c8 -7 15 -21 15 -32 0 -18 -4 -19 -37
-13 -21 4 -39 11 -41 16 -2 5 -9 9 -15 9 -7 0 -17 8 -23 18 -11 16 -7 18 37
16 27 -1 55 -7 64 -14z m-3385 -9 c-22 -4 -39 -14 -46 -29 -20 -40 -32 -47
-26 -15 7 43 21 53 66 52 l41 -2 -35 -6z m3247 -3 c14 -18 22 -68 11 -68 -5 0
-14 14 -20 30 -7 20 -19 32 -36 36 -47 10 -48 12 -6 13 23 1 46 -5 51 -11z
m-282 -38 c-3 -5 -1 -11 4 -14 5 -4 12 -2 16 4 7 12 151 3 181 -12 14 -6 25
-25 30 -52 10 -44 11 -45 94 -30 53 9 85 -21 85 -78 0 -51 16 -62 29 -19 14
49 -8 106 -52 136 -35 24 -35 25 -12 25 54 0 100 -59 100 -128 0 -23 -6 -45
-15 -52 -18 -15 -11 -30 14 -30 22 0 45 26 59 65 l10 30 10 -25 c9 -20 7 -28
-9 -42 -24 -21 -24 -29 1 -51 11 -9 20 -24 20 -33 0 -10 5 -14 15 -10 12 4 15
-3 15 -30 l0 -35 -37 30 c-42 35 -97 41 -136 17 -12 -8 -32 -17 -45 -21 -17
-5 -12 4 23 38 25 25 45 50 45 56 0 14 -35 14 -60 1 -15 -8 -19 -4 -29 34 -13
55 -62 100 -101 94 -22 -3 -29 2 -45 35 -28 57 -62 71 -172 68 -51 -1 -93 1
-93 5 0 16 33 42 46 37 8 -3 12 -9 9 -13z m-2697 -2 c24 -24 10 -29 -87 -27
-114 3 -142 -8 -169 -69 -14 -31 -21 -36 -43 -34 -36 4 -86 -40 -100 -89 -12
-38 -13 -39 -51 -33 -50 8 -49 -5 2 -58 22 -23 38 -44 35 -46 -2 -2 -20 5 -40
17 -53 31 -102 28 -148 -10 l-37 -30 0 35 c0 27 3 34 15 30 10 -4 15 0 15 15
0 11 9 25 20 31 26 14 25 28 -1 49 -20 16 -21 19 -7 46 l15 28 7 -36 c8 -41
53 -84 70 -67 7 7 5 19 -7 40 -24 40 -14 92 28 136 22 23 41 34 61 34 l29 0
-37 -25 c-48 -33 -71 -95 -51 -143 18 -44 35 -31 29 23 -4 32 -1 48 10 60 23
23 63 29 99 16 35 -12 69 -5 62 13 -3 6 3 27 12 46 l16 35 90 7 c54 4 91 3 93
-3 6 -15 22 -10 22 6 0 18 31 20 48 3z m1886 -68 c12 -30 13 -46 6 -60 -18
-34 -12 -52 18 -49 43 3 61 -10 67 -49 4 -21 11 -49 17 -65 11 -28 -5 -63 -23
-51 -5 3 -9 -1 -8 -8 0 -7 25 -33 54 -58 58 -48 62 -59 27 -75 -30 -13 -28
-27 14 -73 31 -35 36 -48 38 -92 2 -58 -4 -66 -35 -50 -29 16 -34 7 -14 -32
10 -18 21 -40 26 -50 11 -22 39 -132 39 -152 0 -26 -28 -18 -45 13 -19 37 -52
49 -69 26 -8 -11 -22 -15 -40 -13 -30 3 -34 7 -63 73 -21 49 -41 66 -70 62
-16 -3 -25 3 -34 25 -13 32 -87 100 -100 92 -5 -3 -9 -21 -9 -39 0 -30 -5 -37
-36 -50 -20 -8 -48 -15 -61 -15 -16 0 -27 -7 -30 -20 -5 -18 -7 -18 -33 10
-18 19 -38 30 -55 30 -46 0 -113 21 -120 38 -3 9 -1 18 6 21 28 9 98 83 92 98
-6 14 60 83 79 83 4 0 8 9 8 21 0 12 11 30 25 41 14 11 25 24 25 31 0 15 40
96 51 103 5 3 9 14 9 25 0 10 9 24 19 31 10 6 17 17 15 23 -3 7 11 31 31 54
19 24 35 47 35 53 0 6 7 7 16 4 20 -8 80 36 89 64 10 30 21 24 39 -20z m-2039
-32 c-11 -6 -28 -18 -38 -26 -16 -15 -17 -14 -11 2 4 10 16 22 28 26 30 13 44
11 21 -2z m3003 -16 c6 -9 12 -21 11 -26 0 -6 -3 -5 -6 2 -3 8 -19 23 -37 34
-27 17 -28 19 -6 13 14 -4 31 -14 38 -23z m-2770 -17 l22 -35 -92 0 c-77 0
-97 -4 -118 -20 -14 -11 -31 -20 -39 -20 -10 0 -12 -9 -8 -37 5 -32 4 -35 -7
-21 -10 14 -12 43 -7 110 1 4 8 13 16 22 17 17 160 22 170 5 11 -17 27 -9 22
11 -8 32 16 23 41 -15z m2537 15 c-6 -20 9 -28 19 -11 3 5 39 9 80 9 59 1 77
-3 91 -18 21 -23 26 -102 7 -126 -13 -17 -13 -16 -8 12 6 28 3 33 -33 57 -34
23 -52 27 -130 29 l-90 3 20 33 c23 36 54 45 44 12z m-2487 -35 c-3 -3 -9 2
-12 12 -6 14 -5 15 5 6 7 -7 10 -15 7 -18z m2821 -45 c54 0 73 -18 69 -65 -3
-37 -5 -40 -35 -40 -26 -1 -35 5 -50 35 -12 21 -30 39 -48 45 -41 13 -41 12
-20 35 15 17 19 17 32 5 8 -8 31 -15 52 -15z m-3160 3 c8 -14 4 -19 -22 -28
-19 -6 -39 -24 -52 -45 -16 -28 -26 -35 -50 -35 -28 0 -30 3 -33 40 -4 47 15
65 69 65 21 0 41 5 44 10 10 16 33 12 44 -7z m311 -12 c0 -10 -69 -23 -83 -14
-5 3 -3 9 4 14 18 11 79 12 79 0z m204 -13 c17 -27 -2 -34 -24 -8 -11 13 -20
25 -20 27 0 11 34 -4 44 -19z m2076 14 c0 -5 -9 -17 -20 -27 -16 -14 -20 -15
-20 -4 0 16 19 39 32 39 4 0 8 -4 8 -8z m249 -1 c7 -5 9 -11 4 -14 -14 -9 -83
4 -83 14 0 12 61 11 79 0z m-2470 -76 l32 -45 -84 0 c-75 0 -87 -3 -111 -25
-16 -15 -26 -34 -26 -52 0 -35 14 -58 29 -49 6 4 11 0 11 -8 0 -9 -4 -16 -9
-16 -25 0 -41 14 -41 36 0 13 -7 42 -16 64 -15 38 -15 42 0 59 9 10 16 22 16
28 0 21 30 35 82 40 29 3 55 7 57 9 13 12 31 -1 60 -41z m2464 30 c18 -2 35
-3 39 -4 3 -1 18 -21 32 -46 25 -43 26 -46 11 -81 -8 -20 -15 -46 -15 -58 0
-14 -11 -26 -33 -36 -20 -10 -32 -22 -32 -35 0 -17 7 -20 42 -21 23 0 49 -7
58 -14 23 -19 19 -67 -10 -96 -21 -21 -28 -23 -45 -14 -12 6 -20 19 -18 28 1
9 -1 23 -6 31 -6 9 -3 17 8 23 23 13 20 25 -8 30 -32 6 -56 -8 -56 -33 0 -11
-4 -17 -10 -14 -5 3 -10 24 -10 46 0 22 -4 38 -9 35 -5 -4 -21 -2 -36 4 l-26
10 18 31 c26 44 41 55 56 39 9 -10 9 -13 0 -17 -19 -7 -15 -24 4 -21 15 2 17
-3 15 -31 -3 -22 0 -31 7 -27 6 4 11 11 11 17 0 12 37 49 49 49 5 0 12 7 15
16 13 34 5 63 -25 88 -34 29 -29 28 -123 26 l-68 -1 33 45 c30 43 35 46 66 40
19 -4 48 -8 66 -9z m-2379 -24 c9 -16 12 -31 9 -35 -11 -11 -19 -6 -19 12 -1
9 -4 25 -9 35 -12 28 3 19 19 -12z m2176 3 c-6 -14 -8 -30 -4 -35 3 -5 1 -9
-5 -9 -19 0 -23 21 -7 45 21 32 28 32 16 -1z m-2640 -29 c0 -27 18 -33 38 -13
22 22 14 -23 -10 -59 -27 -39 -31 -40 -58 -11 -33 36 -37 68 -10 90 30 24 40
23 40 -7z m3128 9 c31 -22 27 -48 -13 -92 -23 -25 -35 -32 -35 -21 0 9 -9 24
-20 34 -11 10 -20 30 -19 44 0 14 3 20 6 14 2 -7 13 -13 24 -13 14 0 19 7 19
25 0 29 7 31 38 9z m-3024 -20 c4 -10 1 -14 -6 -12 -15 5 -23 28 -10 28 5 0
13 -7 16 -16z m928 -26 c-3 -30 1 -40 22 -53 14 -10 23 -21 20 -26 -6 -11 -84
-12 -101 -1 -32 20 -35 107 -4 116 9 2 27 3 41 3 22 -2 25 -6 22 -39z m1976
30 c-2 -6 -10 -14 -16 -16 -7 -2 -10 2 -6 12 7 18 28 22 22 4z m-2149 -24 c30
-39 28 -71 -6 -78 -16 -3 -41 -2 -58 2 -23 7 -32 17 -41 48 -6 21 -9 42 -7 47
2 4 24 7 48 7 35 0 48 -5 64 -26z m1478 -9 c-8 -66 -49 -85 -86 -39 -11 15
-19 29 -17 33 1 3 6 14 9 24 5 13 18 17 52 17 l45 0 -3 -35z m-2602 -36 c25
-12 45 -25 45 -30 0 -14 -49 -10 -86 7 -34 16 -40 25 -27 37 10 11 20 9 68
-14z m3692 5 c5 -16 -58 -44 -98 -44 -39 0 -32 10 26 40 42 21 66 22 72 4z
m-2847 -49 c0 -11 -14 7 -31 40 -7 13 -3 12 10 -5 11 -14 21 -29 21 -35z
m1949 20 c-12 -19 -23 -35 -25 -35 -6 0 14 40 29 58 18 23 16 12 -4 -23z
m-2009 16 c0 -12 -28 -22 -34 -12 -3 5 -3 11 1 15 9 9 33 7 33 -3z m2080 -1
c0 -5 -7 -10 -15 -10 -8 0 -15 5 -15 10 0 6 7 10 15 10 8 0 15 -4 15 -10z
m-2117 -52 c36 -49 34 -58 -10 -58 -33 1 -42 7 -70 45 -18 24 -33 46 -33 49 0
7 74 12 81 6 3 -3 17 -22 32 -42z m2208 42 l29 0 -17 -27 c-34 -56 -56 -73
-90 -73 -40 0 -41 11 -8 54 14 18 25 39 25 46 0 7 7 10 16 6 9 -3 29 -6 45 -6z
m-2965 -79 c30 -12 61 -18 67 -14 8 4 7 1 -1 -9 -19 -23 -68 -41 -95 -35 -13
4 -35 27 -52 56 -17 28 -34 51 -38 51 -5 0 -5 5 -2 10 4 6 18 1 36 -14 16 -13
54 -34 85 -45z m898 30 c-6 -6 -24 19 -24 34 1 6 7 1 15 -9 8 -11 12 -22 9
-25z m1860 15 c-3 -9 -10 -16 -15 -16 -6 0 -5 9 1 21 13 24 24 20 14 -5z m973
-28 c-38 -65 -60 -82 -100 -74 -19 4 -43 16 -53 28 -11 12 -14 18 -7 15 16
-10 111 27 148 57 17 13 32 23 34 21 2 -2 -8 -23 -22 -47z m-3331 8 c22 -70
-40 -97 -64 -28 -12 36 1 62 31 62 16 0 25 -9 33 -34z m217 -3 c29 -40 25 -54
-17 -56 -21 -2 -26 -7 -27 -29 -2 -40 -3 -46 -11 -54 -5 -4 -8 2 -8 13 0 23
-24 37 -55 34 -26 -4 -29 -7 -19 -23 16 -25 12 -79 -7 -88 -24 -13 -65 21 -71
60 -5 35 17 61 53 62 56 1 71 8 66 31 -6 20 -5 20 7 5 19 -25 29 -22 24 7 -4
17 -1 25 9 25 10 0 13 6 9 16 -6 17 0 34 13 34 4 0 20 -17 34 -37z m2675 25
c19 -19 14 -55 -10 -78 l-23 -21 -17 21 c-13 16 -14 27 -7 53 5 17 9 33 9 34
0 9 38 1 48 -9z m-2452 -45 c-4 -4 -11 -1 -16 7 -16 25 -11 35 7 17 9 -9 13
-20 9 -24z m1984 30 c0 -14 -19 -38 -25 -32 -8 8 5 39 16 39 5 0 9 -3 9 -7z
m-1553 -59 c21 -16 33 -33 33 -50 0 -21 -5 -24 -34 -24 -59 0 -117 67 -78 90
27 15 43 12 79 -16z m-1007 -5 c0 -5 18 -29 40 -53 22 -24 40 -51 40 -60 0
-26 28 -74 50 -86 14 -7 20 -21 20 -43 0 -34 24 -78 55 -101 10 -7 16 -18 14
-25 -3 -7 -33 21 -68 63 -35 41 -80 88 -100 103 -69 54 -116 83 -133 83 -30 0
-28 15 12 78 28 44 44 60 55 56 8 -3 15 -10 15 -15z m2452 -6 c34 -31 20 -64
-34 -77 -20 -5 -32 -1 -48 16 -23 25 -26 39 -7 36 6 -2 11 3 9 11 -7 31 50 41
80 14z m705 0 c3 -10 13 -26 21 -36 8 -9 13 -19 11 -21 -2 -1 -31 -21 -64 -43
-33 -22 -82 -62 -110 -87 -29 -28 -51 -42 -54 -35 -2 7 5 20 15 28 30 24 54
63 54 86 0 12 14 34 31 51 17 16 35 39 40 52 10 26 47 30 56 5z m-3457 -72 c0
-11 -3 -11 -16 -1 -8 8 -20 22 -26 33 -10 19 -10 19 16 1 14 -11 26 -25 26
-33z m3739 17 c-15 -20 -24 -27 -27 -18 -3 7 6 21 19 31 33 25 34 24 8 -13z
m-3786 -19 c30 -43 77 -69 127 -69 32 0 40 -14 14 -24 -24 -9 -88 -7 -121 4
-29 11 -35 21 -58 108 -9 34 7 26 38 -19z m3822 -45 c-9 -18 -28 -37 -41 -43
-35 -16 -107 -14 -130 4 -18 13 -17 14 19 15 51 0 112 33 140 75 l22 34 3 -27
c2 -15 -4 -41 -13 -58z m-2836 16 c33 -64 34 -61 -15 -75 -6 -2 -16 7 -22 20
-9 20 -9 23 3 18 21 -7 19 3 -10 45 -26 38 -26 37 12 51 1 1 16 -26 32 -59z
m1896 51 c3 -5 1 -12 -5 -16 -5 -3 -10 1 -10 9 0 18 6 21 15 7z m-1975 -31 c6
-11 8 -20 6 -20 -3 0 -10 9 -16 20 -6 11 -8 20 -6 20 3 0 10 -9 16 -20z m2010
16 c0 -3 -4 -8 -10 -11 -5 -3 -10 -1 -10 4 0 6 5 11 10 11 6 0 10 -2 10 -4z
m-2054 -53 c10 -21 27 -48 37 -59 18 -21 18 -22 -17 -26 -30 -3 -36 0 -50 27
-9 16 -21 37 -28 46 -15 21 -4 49 20 49 12 0 26 -14 38 -37z m2140 23 c3 -8
-7 -36 -23 -63 -25 -43 -31 -48 -60 -45 l-32 3 37 60 c36 58 66 75 78 45z
m590 -11 c4 -9 -10 -61 -31 -118 -61 -170 -108 -377 -85 -377 7 0 3 -52 -6
-79 -4 -11 -17 -2 -46 28 l-40 44 6 66 c8 84 26 152 58 216 14 28 29 61 33 75
4 13 24 48 43 77 33 50 38 74 13 58 -14 -8 -120 -148 -148 -195 -63 -104 -85
-163 -87 -234 -3 -78 -14 -91 -50 -57 -17 16 -33 21 -62 19 -31 -2 -39 1 -42
16 -2 10 2 23 10 27 10 7 11 11 0 17 -10 7 -10 14 -2 33 22 49 38 68 155 188
175 179 264 241 281 196z m-870 -22 c-7 -7 -26 7 -26 19 0 6 6 6 15 -2 9 -7
13 -15 11 -17z m132 -28 c-9 -20 -14 -23 -31 -13 -20 10 -20 11 4 24 35 19 40
17 27 -11z m-2141 -2 c19 -13 28 -14 31 -5 6 18 20 15 26 -6 4 -10 15 -28 26
-40 l21 -22 -20 -37 c-19 -36 -21 -37 -27 -15 -3 12 -10 22 -15 22 -5 0 -9 15
-9 33 -1 25 -9 38 -37 60 -40 30 -37 37 4 10z m2381 -10 c-43 -36 -45 -39 -52
-84 -8 -53 -22 -56 -43 -12 -9 21 -19 41 -21 46 -2 4 3 5 10 2 9 -4 21 7 33
29 15 27 22 33 32 24 9 -8 19 -6 35 5 38 26 42 19 6 -10z m-2463 4 c-25 -19
-10 -39 22 -31 25 7 25 6 9 -18 -9 -13 -13 -27 -10 -31 3 -3 -8 -12 -24 -21
-35 -18 -48 -9 -58 43 -8 39 17 71 54 71 24 0 25 -1 7 -13z m2590 -7 c16 -18
17 -25 6 -60 -6 -21 -16 -42 -21 -45 -14 -9 -49 18 -66 50 -19 37 -18 47 6 33
15 -10 22 -10 32 0 9 9 8 15 -8 27 -18 14 -18 14 7 15 14 0 34 -9 44 -20z
m-1948 -6 c12 -3 26 -19 32 -36 9 -26 7 -32 -17 -54 -44 -39 -72 -42 -99 -10
-27 32 -29 57 -5 78 29 26 53 32 89 22z m-951 -32 c65 -47 123 -122 170 -216
34 -70 41 -93 32 -104 -10 -11 -16 -4 -36 35 -21 42 -162 193 -181 193 -3 0
-15 16 -25 35 -10 19 -23 32 -27 29 -5 -3 -6 1 -3 9 3 8 1 18 -5 22 -19 11
-12 25 12 25 13 0 42 -13 63 -28z m-243 -65 c21 -16 36 -31 34 -34 -3 -2 -32
5 -66 17 -36 12 -72 18 -86 14 -21 -5 -25 -3 -25 14 0 12 5 32 11 46 l12 25
41 -27 c22 -14 58 -39 79 -55z m3787 15 c0 -21 -3 -23 -29 -17 -18 4 -50 -2
-87 -14 -90 -32 -85 -21 26 54 l65 44 12 -22 c7 -12 12 -32 13 -45z m-2983 12
c-16 -9 -32 -13 -35 -9 -9 9 19 25 43 24 16 0 15 -2 -8 -15z m764 -6 c28 -43
-3 -76 -61 -63 -37 8 -43 18 -35 56 7 30 9 31 47 26 23 -3 45 -11 49 -19z
m1305 6 c18 -14 18 -15 -6 -8 -31 8 -50 24 -29 24 8 0 24 -7 35 -16z m-2002
-30 c-6 -25 -5 -26 19 -22 40 8 38 -14 -2 -35 -20 -10 -44 -28 -53 -39 -15
-17 -18 -17 -18 -4 0 19 -43 38 -65 30 -8 -4 -15 -1 -15 5 0 6 6 11 13 11 7 0
18 9 25 21 10 15 69 50 100 58 1 1 -1 -11 -4 -25z m1902 10 c132 -53 185 -95
208 -164 8 -24 14 -46 12 -48 -2 -2 -20 11 -39 28 -20 17 -57 38 -84 47 -30
10 -64 32 -90 59 -23 24 -57 47 -75 52 -31 8 -31 9 -10 16 12 4 22 12 22 17 0
13 12 11 56 -7z m-963 -28 c38 -29 9 -66 -52 -66 -16 0 -33 6 -37 12 -12 20
-12 52 0 60 18 12 70 8 89 -6z m842 4 c-3 -5 -12 -10 -18 -10 -7 0 -6 4 3 10
19 12 23 12 15 0z m-2030 -15 c-10 -8 -21 -26 -22 -40 -4 -28 -4 -29 30 -16
20 8 29 5 47 -14 23 -24 20 -45 -7 -45 -8 0 -27 -7 -43 -16 -45 -27 -63 -13
-58 46 5 50 37 100 62 100 6 0 2 -7 -9 -15z m1303 -33 c-50 -53 -66 -110 -49
-170 13 -44 26 -59 75 -84 55 -28 146 -21 202 15 61 41 68 48 100 105 36 65
59 66 60 2 0 -60 17 -88 66 -110 40 -18 40 -18 19 -31 -22 -14 -29 -39 -11
-39 7 0 7 -8 -1 -22 l-12 -22 -9 24 c-5 14 -7 34 -3 47 4 19 -10 42 -20 32 -2
-2 -6 -33 -10 -69 -7 -62 -6 -66 14 -66 12 0 21 3 21 6 0 4 6 7 14 7 14 0 11
-32 -6 -53 -4 -6 -6 -18 -2 -27 6 -18 61 -21 82 -4 9 7 11 6 6 -7 -4 -10 -1
-16 9 -16 8 0 20 -7 28 -16 7 -8 21 -13 31 -11 16 5 63 -23 79 -46 4 -5 11 -7
17 -3 6 3 14 1 17 -5 4 -5 12 -8 19 -6 7 3 18 -8 25 -24 11 -26 10 -33 -8 -62
-11 -17 -21 -27 -21 -22 0 6 7 20 15 32 20 28 -2 45 -22 17 -13 -18 -14 -17
-8 6 5 22 0 28 -40 50 -25 13 -45 28 -45 32 0 13 -45 9 -59 -4 -10 -11 -11
-10 -6 4 10 25 -26 28 -53 4 -19 -17 -22 -18 -16 -3 12 31 -23 19 -36 -13 -15
-37 -6 -51 15 -24 12 15 14 16 9 2 -6 -18 22 -55 33 -44 3 3 13 -3 20 -14 8
-11 19 -18 24 -15 5 4 9 1 9 -5 0 -6 4 -9 9 -6 5 3 12 -1 15 -10 3 -9 12 -14
20 -11 8 3 23 -1 34 -9 16 -11 21 -11 25 -1 3 7 6 5 6 -6 1 -15 -4 -17 -35
-11 -49 9 -39 -4 41 -54 64 -40 95 -41 59 -1 -19 21 -13 24 18 8 16 -9 22 -8
29 2 7 11 13 10 29 -7 l21 -21 -21 -36 c-12 -21 -23 -37 -25 -37 -2 0 -22 9
-46 20 -56 25 -101 25 -198 0 -135 -34 -224 -76 -218 -102 7 -24 -52 -77 -88
-79 -37 -3 -94 15 -164 52 -30 16 -60 29 -67 29 -8 0 -14 15 -16 38 -2 29 -8
38 -25 40 -26 4 -53 -31 -53 -69 0 -31 30 -89 45 -89 12 0 65 -48 65 -59 0 -4
-7 -22 -15 -38 -11 -22 -13 -38 -6 -56 14 -35 26 -40 60 -22 17 8 45 15 64 15
18 0 38 5 45 12 13 13 16 -1 13 -48 -3 -29 42 -41 75 -19 32 21 46 19 108 -14
73 -39 181 -41 319 -7 52 13 100 27 105 30 5 3 12 19 15 36 5 20 15 34 33 40
14 6 24 16 21 23 -2 6 0 25 4 40 7 23 4 29 -14 36 -12 5 -29 22 -37 37 -7 16
-28 41 -44 57 -30 26 -30 28 -12 42 14 11 23 12 33 4 10 -9 15 -5 23 16 5 14
10 29 10 33 0 4 12 21 26 37 l25 30 -5 -40 c-19 -142 -19 -155 -3 -155 9 0 20
-7 25 -16 8 -14 14 -15 42 -5 43 14 50 14 50 -3 0 -8 -22 -22 -50 -32 -27 -10
-50 -24 -50 -31 0 -7 3 -13 8 -14 17 -1 58 -10 68 -13 13 -5 6 -68 -10 -78 -6
-4 -34 -8 -63 -8 -62 0 -73 -13 -42 -47 21 -22 31 -24 79 -21 30 2 62 6 70 9
11 3 14 -3 12 -21 -5 -40 -41 -130 -63 -159 -92 -121 -110 -139 -163 -165 -31
-15 -61 -36 -67 -47 -7 -14 -14 -17 -22 -11 -18 14 -93 25 -177 26 -59 1 -75
-2 -78 -14 -2 -13 17 -15 119 -17 67 -1 124 -4 127 -8 3 -3 -1 -12 -10 -21
-13 -13 -26 -14 -92 -5 -111 16 -156 14 -156 -4 0 -16 -18 -20 -36 -7 -6 4
-19 23 -29 42 -40 78 -114 140 -167 140 -30 0 -37 -17 -16 -38 15 -15 12 -87
-5 -113 -16 -25 -34 -31 -59 -18 -12 7 -23 7 -27 2 -3 -5 -21 -15 -38 -22 -18
-7 -42 -28 -53 -46 -23 -38 -42 -45 -127 -45 -52 0 -63 3 -68 19 -3 10 -18 31
-32 45 -15 15 -20 24 -11 21 13 -5 14 2 10 43 -4 44 -1 52 27 84 36 42 38 55
12 128 -11 30 -24 97 -30 149 -8 77 -8 100 4 128 9 21 11 41 6 51 -10 21 7 88
19 76 5 -5 33 -7 61 -4 62 6 87 32 55 56 -11 8 -29 14 -41 14 -28 0 -65 27
-65 48 0 23 -42 90 -47 75 -2 -7 -11 -9 -19 -6 -12 4 -14 -2 -9 -33 5 -36 2
-41 -36 -71 -45 -36 -77 -41 -144 -21 -22 6 -49 11 -60 10 -12 -1 -45 21 -80
53 -32 30 -63 57 -69 59 -6 2 -1 5 12 5 35 1 24 33 -18 52 -19 9 -66 22 -105
28 l-70 11 -42 -45 c-23 -25 -46 -45 -51 -45 -6 0 -13 -10 -15 -22 -4 -23 -4
-23 -6 -1 0 12 10 35 24 51 30 36 31 41 4 50 -20 8 -20 8 3 37 l22 29 7 -25
c5 -21 7 -22 14 -6 5 11 1 24 -10 37 -16 17 -16 19 5 30 11 6 25 22 30 35 5
13 28 34 52 46 24 12 51 28 61 37 9 8 17 12 17 9 0 -3 12 1 28 8 16 9 28 11
30 5 7 -20 22 -9 37 27 14 34 12 59 -3 38 -9 -13 -82 -13 -82 0 0 6 -9 -1 -20
-15 -15 -18 -18 -20 -14 -6 5 12 2 23 -7 30 -20 15 -31 44 -19 51 5 3 17 21
26 40 l16 34 46 -30 c109 -69 260 -8 277 111 5 37 3 51 -17 79 -36 53 -53 60
-77 30 -19 -23 -21 -23 -48 -9 -42 23 -43 64 -2 85 27 15 35 15 57 3 43 -23
104 -17 145 15 l37 28 10 -23 c22 -54 59 -78 119 -78 58 0 109 48 113 105 3
42 26 69 51 59 8 -3 18 -1 22 5 3 6 11 11 17 11 6 0 -9 -22 -34 -48z m1120 26
c29 -32 36 -69 18 -93 -16 -20 -16 -20 -36 5 -24 31 -25 42 -2 38 27 -5 22 34
-8 54 -17 12 -20 18 -9 18 8 0 25 -10 37 -22z m-905 -10 c8 -27 -7 -56 -46
-91 -34 -31 -64 -32 -81 -2 -6 11 -15 23 -20 26 -5 4 -6 18 -2 33 l6 25 36
-24 c39 -26 69 -32 79 -15 3 6 -1 10 -9 10 -11 0 -16 9 -16 30 0 25 4 30 24
30 16 0 26 -7 29 -22z m-1023 2 c13 -8 13 -10 -2 -10 -9 0 -20 5 -23 10 -8 13
5 13 25 0z m1619 -29 c33 -31 38 -50 21 -81 -9 -17 -64 -40 -95 -40 -6 0 -16
30 -23 67 -10 54 -10 68 0 75 26 16 66 8 97 -21z m-1229 9 c12 -8 11 -10 -7
-10 -12 0 -25 5 -28 10 -8 13 15 13 35 0z m-110 -10 c0 -5 -3 -10 -8 -10 -4 0
-22 -13 -40 -29 -25 -23 -32 -38 -33 -68 l-1 -38 -9 30 c-10 32 0 61 35 102
20 23 56 31 56 13z m-1375 -46 c26 -26 26 -32 4 -91 -11 -29 -28 -38 -35 -19
-3 9 -15 16 -25 16 -12 0 -19 7 -19 19 0 39 -11 51 -48 51 -34 0 -35 1 -20 17
10 9 37 20 60 24 24 3 46 7 50 8 4 0 19 -11 33 -25z m1055 16 c12 -8 12 -10
-5 -10 -11 0 -31 -7 -45 -15 -50 -28 -124 -65 -132 -65 -4 0 -8 6 -8 13 0 19
56 58 104 73 50 16 67 16 86 4z m927 -87 c52 -42 127 -32 194 25 39 33 41 34
28 9 -8 -14 -30 -38 -49 -52 -28 -21 -45 -25 -98 -25 -35 0 -73 5 -84 11 -16
9 -19 8 -13 -2 5 -8 4 -10 -4 -5 -25 16 -43 68 -36 105 l7 36 14 -40 c7 -22
26 -50 41 -62z m1522 -103 c5 -58 12 -113 16 -123 7 -16 3 -18 -36 -15 -34 2
-43 7 -39 18 2 8 4 62 3 119 -2 76 3 119 15 155 l17 51 7 -50 c4 -27 11 -97
17 -155z m231 171 l25 -16 -39 -5 c-35 -4 -41 -9 -48 -37 -5 -18 -15 -33 -23
-33 -8 0 -18 -7 -23 -17 -8 -14 -11 -13 -25 8 -28 46 -30 77 -3 103 20 21 30
24 67 19 24 -3 55 -13 69 -22z m-2484 -36 c0 -43 5 -60 23 -79 33 -35 84 -51
122 -37 23 8 30 8 27 -2 -2 -6 -34 -22 -70 -34 -54 -18 -72 -21 -97 -12 -38
13 -71 65 -71 110 0 32 41 109 58 109 4 0 7 -25 8 -55z m511 49 c-3 -3 -12 -4
-19 -1 -8 3 -5 6 6 6 11 1 17 -2 13 -5z m150 -99 c6 -11 25 -33 41 -49 28 -26
35 -28 91 -24 67 5 69 -4 6 -19 -73 -17 -149 15 -168 71 -5 15 -6 48 -1 74 l8
47 6 -40 c3 -22 11 -49 17 -60z m-1467 44 c12 -16 20 -32 17 -35 -2 -3 -14 11
-25 31 -26 43 -21 46 8 4z m2042 16 c29 -39 -41 -76 -93 -49 -30 15 -36 33
-20 50 13 12 104 12 113 -1z m-1417 -15 c-27 -12 -43 -12 -25 0 8 5 22 9 30 9
10 0 8 -3 -5 -9z m1861 -58 c26 -39 11 -33 -36 15 -42 43 -43 45 -12 27 18
-10 40 -29 48 -42z m320 -24 c-3 -40 -6 -74 -6 -76 -1 -13 -20 13 -20 28 0 28
21 120 27 120 3 0 3 -33 -1 -72z m-2493 43 c15 -6 27 -14 27 -18 0 -18 -68
-53 -101 -53 -23 0 -49 -10 -75 -29 -51 -37 -101 -54 -123 -41 -14 8 -13 9 7
10 22 0 31 23 13 34 -16 10 0 43 25 55 31 14 119 14 145 1 24 -13 27 11 4 30
-36 30 10 37 78 11z m1617 -56 c18 -10 20 -14 8 -15 -20 0 -58 46 -58 69 1 9
6 3 13 -12 7 -16 23 -35 37 -42z m528 -6 c10 -16 10 -24 1 -35 -10 -12 -15
-11 -33 8 -12 13 -37 35 -55 49 -22 16 -32 30 -27 37 9 16 96 -29 114 -59z
m-490 31 c22 -7 23 -8 6 -9 -11 -1 -29 6 -40 15 -10 8 -13 12 -6 9 8 -4 26
-11 40 -15z m269 4 c-18 -10 -36 -12 -50 -7 -19 6 -16 8 18 14 61 10 62 9 32
-7z m-1602 -29 c-36 -22 -70 -35 -92 -35 -34 0 -33 1 28 33 35 17 76 33 92 34
26 2 23 -2 -28 -32z m-1120 -5 l24 -23 -24 -48 c-14 -27 -25 -58 -25 -69 0
-30 -16 -16 -24 20 -3 20 -16 37 -36 48 -24 14 -30 23 -30 53 0 20 3 39 7 42
13 14 85 -1 108 -23z m3790 -17 c0 -34 -4 -44 -22 -52 -20 -9 -57 -65 -51 -75
2 -2 0 -8 -4 -12 -5 -4 -8 3 -8 16 0 13 -12 43 -26 67 -25 43 -25 45 -7 66 26
32 27 32 75 32 l43 0 0 -42z m-2897 2 c32 0 46 -6 58 -23 11 -15 25 -22 50
-22 24 0 41 -7 56 -25 25 -28 51 -31 91 -11 26 15 27 14 27 -14 0 -32 -36 -67
-79 -76 -50 -11 -53 -13 -43 -31 12 -20 -1 -61 -26 -79 -23 -18 -52 -17 -96 1
-68 28 -90 -11 -61 -104 7 -20 5 -23 -9 -18 -20 8 -25 -3 -29 -61 -3 -44 -27
-82 -52 -82 -9 0 -15 -9 -15 -24 0 -14 -11 -37 -24 -53 -14 -17 -26 -45 -28
-67 l-3 -38 -38 36 c-28 28 -36 43 -32 59 4 13 1 35 -5 51 -8 22 -15 27 -34
24 -23 -5 -24 -2 -31 75 -6 77 -6 81 20 104 40 38 78 101 71 119 -5 12 -14 14
-45 9 -37 -6 -63 6 -41 20 18 11 11 33 -8 28 -15 -4 -81 13 -172 44 -11 3 -3
15 29 44 49 44 61 48 61 19 0 -13 9 -22 25 -26 37 -9 155 17 199 44 51 31 62
18 36 -42 -11 -26 -20 -61 -20 -78 0 -16 -9 -64 -19 -106 -20 -81 -33 -272
-18 -272 4 0 6 -4 3 -9 -5 -8 15 -21 32 -21 4 0 8 34 9 76 1 69 32 203 53 229
4 6 8 29 7 52 0 50 23 133 38 133 5 0 28 -12 50 -25 40 -25 115 -35 115 -15 0
6 -12 15 -27 21 -16 6 -41 21 -58 33 -16 12 -38 25 -47 29 -9 3 -18 16 -20 28
-4 31 -28 37 -28 7 0 -13 -7 -33 -16 -44 -15 -18 -15 -18 -5 2 9 18 7 24 -11
36 -21 14 -21 14 13 35 19 11 39 17 44 14 6 -3 29 -6 53 -6z m1880 -25 c17
-11 32 -22 32 -26 0 -4 -60 28 -79 43 -16 12 20 -1 47 -17z m-1598 2 c0 -9
-54 -42 -69 -42 -19 0 -12 15 17 32 29 19 52 23 52 10z m1691 -29 c9 -10 19
-35 22 -57 l6 -38 -32 53 c-18 30 -36 60 -41 67 -12 20 24 0 45 -25z m-2166 7
c-16 -11 -34 -20 -40 -20 -17 1 36 40 54 40 10 0 6 -7 -14 -20z m1952 -27 c16
-25 16 -26 -6 -44 -33 -27 -77 -25 -97 6 -20 31 -11 61 24 73 32 11 56 1 79
-35z m389 22 c11 -7 43 -16 70 -20 27 -4 57 -14 66 -23 13 -10 31 -13 65 -9
45 5 49 3 99 -42 36 -33 68 -52 101 -60 96 -25 97 -26 106 -61 6 -22 5 -41 -3
-56 -7 -12 -9 -27 -5 -34 4 -6 -3 -22 -15 -35 -22 -24 -24 -24 -53 -7 -16 9
-38 28 -48 41 -23 29 -30 24 -33 -26 -5 -77 21 -102 110 -105 43 -2 55 -10 34
-23 -19 -11 -10 -72 15 -109 26 -39 27 -37 -30 -40 -23 -1 -34 -41 -16 -59 15
-15 14 -37 -3 -56 -7 -9 -21 -43 -31 -76 l-17 -60 -17 25 c-28 43 -50 60 -78
61 -16 1 -32 2 -38 4 -5 1 -16 3 -24 3 -10 2 -12 13 -8 45 8 57 -6 72 -45 49
-20 -12 -31 -13 -36 -6 -4 6 -21 18 -38 27 -35 18 -60 67 -49 94 4 10 9 27 11
38 1 11 7 34 12 52 8 24 7 36 -5 52 -20 29 -27 27 -46 -15 -12 -24 -30 -41
-60 -54 -23 -11 -43 -15 -45 -10 -6 17 -25 11 -53 -16 l-26 -25 -34 35 c-19
19 -43 46 -55 59 -11 13 -27 26 -34 29 -12 4 -12 9 3 31 9 14 17 35 17 46 0
12 19 34 48 55 100 75 125 121 118 215 -3 34 -3 68 0 76 7 17 33 13 70 -10z
m-1601 -5 c-3 -5 -16 -10 -28 -9 -21 0 -21 1 -2 9 28 12 37 12 30 0z m1031
-18 c-17 -16 -18 -16 -5 5 7 12 15 20 18 17 3 -2 -3 -12 -13 -22z m-1011 -12
c-9 -17 -27 -35 -41 -40 -43 -17 -51 -10 -12 11 21 10 42 28 48 39 6 11 13 20
16 20 2 0 -3 -14 -11 -30z m-683 -63 c-6 -7 -14 -41 -18 -77 -3 -36 -13 -76
-21 -90 -9 -16 -12 -18 -8 -5 4 11 9 43 12 70 6 63 36 157 41 132 2 -10 -1
-23 -6 -30z m-852 -21 c-6 -6 -10 -18 -10 -28 0 -11 -10 -20 -27 -24 -16 -3
-38 -9 -50 -14 -27 -11 -29 -4 -5 31 25 38 46 56 68 61 22 5 38 -12 24 -26z
m2631 17 c13 -16 12 -17 -3 -4 -17 13 -22 21 -14 21 2 0 10 -8 17 -17z m1262
-17 c21 -25 52 -80 40 -73 -4 3 -27 10 -50 16 -32 9 -43 17 -43 31 0 10 -4 21
-10 25 -5 3 -7 12 -4 19 7 18 44 8 67 -18z m-950 -7 c18 -29 1 -49 -41 -49
-32 0 -41 5 -50 25 -16 34 -16 33 16 38 44 7 64 3 75 -14z m-373 7 c0 -2 -8
-10 -17 -17 -16 -13 -17 -12 -4 4 13 16 21 21 21 13z m255 -90 c13 -14 20 -26
15 -26 -16 0 -50 52 -49 74 2 21 2 21 6 -1 2 -12 15 -33 28 -47z m-1585 30 c0
-3 -4 -8 -10 -11 -5 -3 -10 -1 -10 4 0 6 5 11 10 11 6 0 10 -2 10 -4z m-1420
-90 c0 -2 -7 -7 -16 -10 -8 -3 -12 -2 -9 4 6 10 25 14 25 6z m100 -24 c0 -32
-42 -102 -72 -121 -15 -9 -23 -9 -34 0 -23 19 -16 29 19 29 36 0 59 28 72 88
8 39 15 41 15 4z m4026 -67 c12 -19 25 -25 50 -25 36 0 43 -10 20 -29 -12 -10
-20 -9 -40 4 -31 21 -77 110 -68 133 4 12 8 6 14 -21 4 -20 15 -49 24 -62z
m-3963 39 c-2 -21 -7 -42 -13 -48 -5 -5 -10 -18 -10 -27 0 -9 -7 -23 -17 -30
-15 -13 -16 -11 -10 11 3 14 9 45 12 70 9 62 13 72 28 67 7 -2 11 -19 10 -43z
m3898 -15 c4 -30 10 -61 14 -70 3 -10 2 -20 -4 -23 -5 -4 -12 4 -16 16 -3 13
-10 32 -15 43 -23 53 -28 84 -17 89 24 9 32 -2 38 -55z m-4041 21 c0 -5 -2
-10 -4 -10 -3 0 -8 5 -11 10 -3 6 -1 10 4 10 6 0 11 -4 11 -10z m4170 6 c0 -2
-7 -7 -16 -10 -8 -3 -12 -2 -9 4 6 10 25 14 25 6z m70 -37 c-7 -11 -14 -18
-17 -15 -3 3 0 12 7 21 18 21 23 19 10 -6z m-1355 -49 c-3 -5 -11 -10 -16 -10
-6 0 -7 5 -4 10 3 6 11 10 16 10 6 0 7 -4 4 -10z m-136 -214 c-2 -2 -15 -9
-29 -15 -24 -11 -24 -11 -6 3 16 13 49 24 35 12z m581 -71 c6 -8 9 -19 5 -26
-4 -6 -9 -36 -11 -66 -3 -61 12 -102 47 -127 25 -17 23 -53 -9 -126 l-19 -45
-12 40 c-7 22 -23 61 -37 86 -13 26 -24 56 -24 67 0 12 -4 23 -8 26 -11 6 10
119 28 159 15 31 22 33 40 12z m-1729 -107 c61 -38 69 -47 69 -73 -1 -16 -9
-40 -19 -52 -17 -20 -32 -23 -128 -29 -123 -8 -145 -1 -218 61 -34 29 -38 37
-29 52 25 41 129 81 213 82 34 1 57 -8 112 -41z m1876 18 c-8 -19 20 -56 42
-56 39 0 46 -39 19 -97 -6 -12 -8 -29 -4 -39 6 -16 8 -16 26 1 11 10 23 36 26
57 4 21 11 38 17 38 27 0 -23 -237 -67 -317 -16 -28 -16 -27 -10 22 3 28 9 67
14 89 6 26 5 46 -3 60 -7 11 -12 22 -13 24 -1 1 -19 -15 -41 -37 -28 -29 -45
-38 -60 -35 -19 5 -19 8 -7 42 18 49 17 94 -1 118 -31 41 -11 124 31 124 8 0
14 5 14 10 0 6 5 10 11 10 6 0 9 -6 6 -14z m-719 -17 c64 -11 80 -18 120 -54
l46 -42 -41 -27 c-93 -61 -238 -75 -336 -32 -30 14 -57 30 -59 37 -3 10 -14
10 -48 1 l-43 -11 54 55 c30 31 63 60 74 66 21 12 120 27 145 22 8 -1 48 -8
88 -15z m-1028 -95 c0 -21 -17 -17 -23 5 -3 14 -1 18 9 14 8 -3 14 -11 14 -19z
m1924 -29 c-4 -8 -8 -15 -10 -15 -2 0 -4 7 -4 15 0 8 4 15 10 15 5 0 7 -7 4
-15z m-7 -87 c-3 -8 -6 -5 -6 6 -1 11 2 17 5 13 3 -3 4 -12 1 -19z m-1869 -14
c19 -5 22 -13 22 -53 1 -25 7 -57 15 -71 21 -37 18 -57 -9 -64 -36 -9 -135
-94 -142 -122 -9 -33 -38 -48 -73 -36 -38 13 -121 3 -121 -14 0 -9 -12 -14
-35 -14 -24 0 -35 -5 -35 -15 0 -10 -10 -15 -34 -15 -38 0 -134 67 -198 139
-49 53 -52 104 -10 153 16 18 31 41 35 51 8 21 26 22 33 2 4 -8 11 -15 16 -15
6 0 8 7 4 15 -7 20 50 14 67 -7 6 -8 42 -25 78 -37 l66 -21 116 56 c65 31 119
60 123 65 6 10 48 12 82 3z m-464 -21 c3 -4 14 -8 24 -10 9 -1 31 -7 47 -12
l30 -8 -37 -8 c-32 -6 -42 -3 -69 19 -17 14 -24 26 -16 26 7 0 17 -3 21 -7z
m166 -63 c-8 -5 -24 -9 -35 -9 -16 1 -16 2 5 9 35 11 48 11 30 0z m-370 -102
c-1 -28 -2 -30 -11 -15 -6 10 -8 25 -5 33 9 24 16 16 16 -18z m2046 -26 c-14
-15 -15 -13 -3 17 8 23 13 28 15 16 2 -10 -3 -25 -12 -33z m358 -16 c-6 -16
-24 -23 -24 -8 0 10 22 33 27 28 2 -2 1 -11 -3 -20z m-2401 -28 c5 -16 2 -16
-24 3 -16 11 -27 25 -24 30 8 12 43 -11 48 -33z m2230 23 c5 -19 58 -51 85
-51 9 0 24 8 35 18 19 17 20 16 8 -7 -17 -30 -6 -83 19 -101 23 -16 25 -38 8
-75 -12 -26 -32 -33 -43 -15 -4 6 -24 18 -46 27 -21 8 -39 22 -39 30 0 12 -3
13 -14 4 -11 -10 -15 1 -20 62 -4 41 -9 86 -10 100 -4 31 9 37 17 8z m-285
-76 c-2 -5 -11 -11 -22 -12 -16 -3 -17 -1 -6 12 14 16 34 16 28 0z m-1796 -73
c51 -41 65 -57 61 -72 -8 -29 -19 -25 -44 18 -12 20 -43 57 -68 81 -54 51 -40
44 51 -27z m559 41 c6 -15 13 -45 16 -67 5 -37 4 -39 -18 -33 -13 4 -29 7 -35
7 -17 0 -26 45 -18 86 8 43 39 47 55 7z m1194 -3 c-3 -5 -11 -10 -16 -10 -6 0
-7 5 -4 10 3 6 11 10 16 10 6 0 7 -4 4 -10z m173 -62 c-18 -81 -13 -116 23
-160 18 -23 27 -38 21 -34 -7 4 -12 1 -12 -7 0 -8 18 -19 41 -26 l42 -13 -7
-45 c-8 -57 -18 -70 -81 -100 l-50 -24 43 5 c36 4 43 2 40 -12 -3 -14 -16 -17
-63 -18 -58 0 -62 1 -109 46 l-48 46 1 88 c0 89 23 186 43 186 6 0 8 -6 5 -14
-3 -8 -9 -31 -13 -50 -3 -20 -10 -39 -15 -42 -12 -7 -11 -106 1 -138 11 -30
65 -66 97 -66 12 0 34 10 49 23 26 23 27 24 14 75 -9 38 -20 58 -42 74 -29 20
-30 24 -25 72 3 28 13 74 22 101 9 28 18 56 20 63 10 29 12 8 3 -30z m-1613
22 c-3 -5 -12 -10 -18 -10 -7 0 -6 4 3 10 19 12 23 12 15 0z m-555 -18 c0 -26
-34 -55 -110 -95 -69 -36 -110 -83 -110 -124 0 -14 -4 -21 -10 -18 -17 11 -11
78 10 113 26 42 66 79 106 97 17 8 36 21 44 29 18 23 70 21 70 -2z m1890 -16
c0 -2 -7 -7 -16 -10 -8 -3 -12 -2 -9 4 6 10 25 14 25 6z m-85 -32 c28 -13 24
-14 -50 -10 -44 2 -96 11 -115 20 -34 15 -33 15 50 9 47 -3 99 -12 115 -19z
m455 -34 c44 -18 38 -37 -10 -30 -20 2 -40 29 -40 54 1 18 2 19 10 5 5 -9 23
-22 40 -29z m-2150 -18 c0 -30 -23 -57 -77 -88 -34 -19 -85 -83 -97 -122 -4
-12 -12 -20 -17 -16 -21 13 31 123 72 153 16 12 38 39 49 61 16 30 26 40 45
40 21 0 25 -5 25 -28z m-177 -41 c-35 -32 -63 -63 -63 -68 0 -6 -8 -17 -19
-27 -15 -14 -20 -14 -29 -3 -20 23 22 75 81 102 29 12 59 30 66 39 7 9 16 16
20 16 3 -1 -22 -27 -56 -59z m2477 40 c5 -11 8 -26 5 -33 -2 -7 -9 -32 -15
-56 -9 -35 -14 -41 -25 -32 -18 15 -31 -6 -15 -25 21 -25 -16 -18 -43 8 -13
12 -32 27 -43 34 -18 11 -17 12 7 12 32 1 55 27 57 64 1 16 4 33 8 38 10 16
53 10 64 -10z m-2039 -13 c-24 -8 -45 -2 -36 11 2 5 17 6 32 3 27 -5 27 -5 4
-14z m-241 -85 c-9 -45 -20 -68 -51 -101 -22 -23 -44 -42 -49 -42 -6 0 -10 -7
-10 -15 0 -27 -39 -17 -46 11 -11 44 8 76 78 129 37 27 70 58 73 68 13 37 16
7 5 -50z m1240 57 c0 -5 -14 -10 -31 -10 -17 0 -28 4 -24 10 3 6 17 10 31 10
13 0 24 -4 24 -10z m1137 4 c-3 -3 -12 -4 -19 -1 -8 3 -5 6 6 6 11 1 17 -2 13
-5z m-897 -31 c47 -19 140 -84 140 -97 0 -7 15 -24 33 -40 20 -18 27 -31 19
-33 -6 -3 -33 14 -58 36 -52 46 -81 55 -43 15 l24 -27 -38 7 c-21 4 -46 9 -55
12 -9 3 11 -9 45 -25 61 -30 72 -42 93 -97 l10 -26 -36 32 c-48 41 -115 70
-166 70 -44 0 -50 -22 -8 -28 29 -5 68 -29 96 -59 18 -19 21 -32 17 -63 -4
-26 -2 -40 6 -40 6 0 11 -4 11 -10 0 -5 -13 -10 -29 -10 -21 0 -39 11 -63 36
-61 66 -111 94 -168 94 -32 0 -49 -4 -45 -10 4 -6 -8 -10 -29 -10 -22 0 -38
-6 -44 -16 -8 -15 -14 -15 -73 0 -35 9 -68 21 -73 26 -14 14 10 13 35 -1 11
-5 32 -9 47 -7 l27 4 -30 12 c-39 16 -97 45 -112 55 -9 7 -10 14 -2 29 8 16
17 19 40 14 16 -3 29 -2 29 3 0 9 31 11 45 2 6 -3 37 -4 70 -1 58 6 59 6 32
18 -16 7 -37 12 -48 12 -10 0 -19 6 -19 13 0 6 -23 23 -51 35 -34 16 -49 29
-47 40 1 9 -1 22 -5 29 -12 20 11 25 42 8 18 -9 56 -15 96 -15 62 0 70 4 66
32 -1 12 182 -4 219 -19z m827 -5 c-3 -7 -5 -2 -5 12 0 14 2 19 5 13 2 -7 2
-19 0 -25z m-1615 6 c26 -8 49 -22 52 -31 7 -18 -22 -43 -41 -36 -7 3 -13 0
-13 -7 0 -6 -5 -8 -10 -5 -17 10 -63 -4 -94 -28 -22 -18 -27 -28 -22 -45 6
-19 10 -20 29 -11 12 7 28 12 37 13 8 1 41 14 73 31 l57 29 25 -25 c23 -22 24
-28 14 -58 -7 -19 -17 -30 -24 -27 -7 2 -18 -1 -24 -7 -6 -6 -27 -12 -46 -12
-36 -2 -75 -28 -75 -51 0 -10 9 -12 33 -7 17 3 37 9 42 12 6 4 21 6 35 5 14
-1 36 5 49 13 19 12 28 13 50 3 15 -8 21 -14 14 -17 -7 -3 -13 -15 -13 -29 0
-21 -5 -24 -37 -23 -156 1 -230 -27 -298 -113 -80 -100 -97 -118 -117 -118
-10 0 -33 -7 -51 -16 l-32 -16 26 28 c15 16 39 53 53 82 23 46 60 80 101 96 6
2 7 7 3 11 -4 4 -29 2 -55 -4 -35 -9 -52 -19 -64 -39 -17 -30 -74 -63 -95 -55
-16 6 -7 41 22 80 13 17 24 36 24 41 0 5 18 24 41 43 76 63 76 64 45 67 -27 3
-84 -31 -113 -68 -10 -12 -12 -6 -13 36 0 38 6 58 25 84 30 41 75 79 93 80 23
0 12 20 -12 20 -50 0 -126 -93 -140 -172 -8 -42 -57 -98 -87 -98 -23 0 -25 15
-4 24 18 6 20 36 3 36 -7 0 4 11 23 25 45 33 69 65 69 92 0 34 -21 39 -42 10
-11 -15 -24 -27 -29 -27 -17 0 -9 29 10 40 11 5 22 19 26 30 3 11 19 29 35 40
38 27 157 60 217 60 27 0 71 7 98 14 66 19 74 19 127 0z m1114 -92 c0 -42 6
-87 12 -99 13 -23 7 -29 -14 -15 -13 8 -33 66 -36 102 -2 24 21 90 32 90 3 0
5 -35 6 -78z m-1694 -10 c-11 -31 -1 -52 25 -52 7 0 10 -6 7 -14 -3 -8 -12
-12 -20 -9 -29 11 -131 -83 -141 -131 -5 -25 -7 -26 -16 -10 -24 42 -10 84 50
148 32 34 66 72 76 85 23 29 32 21 19 -17z m2071 -12 c3 -11 1 -20 -4 -20 -5
0 -9 9 -9 20 0 11 2 20 4 20 2 0 6 -9 9 -20z m-2476 -16 c-3 -3 -12 -4 -19 -1
-8 3 -5 6 6 6 11 1 17 -2 13 -5z m2333 -29 c0 -8 -4 -15 -10 -15 -5 0 -7 7 -4
15 4 8 8 15 10 15 2 0 4 -7 4 -15z m-70 -5 c0 -5 -2 -10 -4 -10 -3 0 -8 5 -11
10 -3 6 -1 10 4 10 6 0 11 -4 11 -10z m-2150 -51 c0 -6 -4 -7 -10 -4 -5 3 -10
11 -10 16 0 6 5 7 10 4 6 -3 10 -11 10 -16z m1875 2 c3 -5 1 -12 -5 -16 -18
-11 -12 -38 8 -30 14 5 15 4 5 -6 -21 -21 -16 -42 8 -36 15 4 23 -1 30 -20 16
-42 -5 -51 -38 -17 -22 23 -29 40 -31 82 -4 48 7 68 23 43z m-1980 -60 l-27
-26 23 37 c13 21 26 32 28 27 2 -6 -9 -23 -24 -38z m2455 45 c0 -2 -8 -10 -17
-17 -16 -13 -17 -12 -4 4 13 16 21 21 21 13z m-570 -40 c7 -9 9 -16 4 -16 -12
0 -26 11 -44 34 -14 18 -14 19 6 8 11 -6 26 -18 34 -26z m240 -1 c19 -14 28
-25 21 -25 -8 0 -10 -7 -6 -22 6 -18 -1 -14 -29 16 -55 58 -47 76 14 31z
m-2062 -17 c6 -6 31 -14 54 -17 57 -8 61 -32 14 -80 -50 -51 -69 -102 -61
-162 4 -27 10 -49 14 -49 4 0 7 -16 7 -35 -1 -28 -6 -37 -23 -41 -37 -10 -70
4 -97 39 -22 29 -26 44 -28 129 l-2 96 44 66 c46 67 57 75 78 54z m1271 -64
c44 -23 57 -25 118 -19 75 7 74 7 201 -88 47 -36 72 -71 58 -84 -3 -3 -45 13
-93 37 -94 45 -236 84 -343 95 -64 6 -244 -16 -279 -34 -9 -5 -35 -11 -59 -14
l-43 -5 20 31 c19 30 25 33 94 40 41 4 101 16 133 28 130 45 132 45 193 13z
m-1089 -51 c0 -34 -46 1 -53 40 l-4 28 28 -27 c16 -15 29 -34 29 -41z m1890
36 c9 -16 5 -22 -34 -41 -57 -27 -69 -18 -27 21 17 16 31 34 31 41 0 15 17 4
30 -21z m295 -28 c61 -66 74 -97 75 -174 0 -75 -21 -116 -72 -143 -38 -20 -41
-18 -21 12 24 37 21 114 -7 159 -27 43 -77 83 -127 100 -34 12 -38 17 -41 52
l-3 38 78 0 77 0 41 -44z m-2065 12 c0 -14 7 -34 16 -44 14 -16 14 -20 -7 -48
-27 -37 -43 -35 -47 5 -2 16 -7 34 -12 39 -5 6 -2 25 5 43 17 40 45 43 45 5z
m2126 -11 c17 -27 17 -27 -15 2 -35 33 -37 38 -17 30 8 -3 22 -18 32 -32z
m-516 -39 c0 -88 -124 -137 -192 -76 -27 24 -23 28 33 30 57 1 92 21 124 70
23 34 35 26 35 -24z m-767 -10 c-7 -2 -19 -2 -25 0 -7 3 -2 5 12 5 14 0 19 -2
13 -5z m-50 -10 c-7 -2 -19 -2 -25 0 -7 3 -2 5 12 5 14 0 19 -2 13 -5z m-70
-10 c-7 -2 -21 -2 -30 0 -10 3 -4 5 12 5 17 0 24 -2 18 -5z m-678 -30 c-4 -10
-11 -34 -15 -53 l-8 -35 -1 33 c-1 32 13 72 25 72 4 0 3 -8 -1 -17z m63 -32
c-2 -59 61 -111 115 -96 17 5 19 4 7 -4 -45 -32 -154 10 -166 63 -5 24 -2 34
16 48 29 23 29 23 28 -11z m2094 -100 c-21 -101 -49 -142 -121 -178 -73 -37
-111 -40 -161 -13 -19 11 -31 19 -27 20 5 0 17 -5 28 -10 29 -16 134 6 182 38
55 36 87 109 88 200 1 63 2 65 12 33 8 -24 7 -49 -1 -90z m-2289 81 c25 -26
38 -76 25 -98 -4 -5 -32 -11 -62 -12 -56 -2 -56 -2 -56 27 0 19 -8 34 -22 44
-22 14 -23 15 -4 35 16 18 29 23 82 31 5 0 22 -11 37 -27z m2038 -27 c61 -41
54 -105 -13 -120 -21 -5 -29 -2 -39 16 -12 23 -12 23 -20 4 -6 -16 -8 -14 -8
13 -1 17 -5 32 -11 32 -24 0 -41 -82 -20 -95 6 -3 10 -13 10 -22 0 -9 -3 -13
-7 -10 -3 4 -12 2 -18 -3 -9 -7 -19 6 -39 50 l-27 60 22 36 c39 64 110 80 170
39z m-1406 -5 c28 -31 71 -41 165 -40 19 1 114 2 211 3 150 2 180 6 203 21 15
10 30 15 34 12 3 -3 16 1 29 10 22 14 27 14 53 -3 l29 -18 -77 -60 -77 -60
-75 8 c-78 9 -354 2 -403 -9 -33 -8 -46 -31 -26 -46 10 -7 9 -8 -6 -3 -11 4
-29 10 -40 12 -11 3 -37 22 -57 41 -28 27 -40 33 -50 24 -21 -17 -40 1 -32 31
4 17 2 27 -5 27 -26 0 -8 28 32 47 53 27 69 28 92 3z m952 4 c-3 -3 -12 -4
-19 -1 -8 3 -5 6 6 6 11 1 17 -2 13 -5z m262 -151 c28 -52 56 -112 61 -132 5
-20 21 -81 35 -136 24 -87 26 -112 22 -195 -7 -116 -49 -266 -102 -365 -50
-93 -180 -233 -278 -301 -43 -30 -80 -54 -82 -54 -2 0 -25 -15 -51 -33 -29
-19 -110 -52 -199 -81 -82 -26 -166 -54 -185 -62 -19 -7 -69 -18 -112 -25
l-76 -11 -169 57 c-199 68 -185 61 -298 145 -49 37 -109 79 -131 93 -54 34
-139 122 -160 167 -10 19 -27 51 -40 71 -12 19 -22 46 -22 60 0 13 -10 50 -22
83 -11 32 -22 76 -23 97 -1 22 -5 39 -9 39 -12 0 -10 48 3 55 7 5 4 14 -7 26
-9 10 -12 19 -6 19 7 0 10 18 8 48 -1 26 3 79 11 117 17 89 17 88 -7 75 -26
-14 -26 0 0 30 11 13 19 35 18 49 -1 14 15 61 35 103 37 78 57 96 97 83 24 -8
27 -53 5 -94 -8 -16 -19 -62 -24 -102 -5 -41 -12 -84 -15 -97 -3 -12 -6 -75
-7 -140 -2 -118 5 -154 56 -307 41 -122 135 -268 195 -303 19 -11 57 -46 84
-78 66 -76 126 -103 341 -154 133 -32 332 -20 413 24 62 34 142 67 151 61 5
-3 16 3 23 13 7 10 37 31 66 45 72 36 140 84 180 127 32 33 112 177 112 200 0
31 65 170 81 175 21 7 26 45 7 46 -10 0 -10 2 0 6 6 2 12 11 12 20 0 10 -7 13
-22 9 -13 -3 -7 1 12 10 33 15 34 17 15 30 -16 12 -17 14 -2 14 9 0 17 5 17
11 0 7 -12 9 -32 7 l-31 -5 34 28 c41 33 33 49 -12 22 -21 -12 -36 -30 -41
-51 -14 -51 -23 -37 -20 28 3 46 7 60 19 60 13 0 13 -3 3 -15 -21 -26 -3 -29
34 -5 37 23 47 40 21 40 -9 0 -12 6 -9 15 4 8 1 15 -6 15 -8 0 -11 12 -8 35 2
19 0 35 -4 35 -4 0 -8 5 -8 11 0 7 -20 54 -44 105 -24 51 -42 95 -39 97 2 3
-3 19 -11 36 -23 43 -20 103 5 135 l22 27 32 -31 c18 -17 56 -74 84 -127z
m-1684 91 c11 -8 13 -12 5 -8 -24 11 -50 36 -50 47 0 6 6 3 13 -6 6 -9 21 -24
32 -33z m1219 -29 c-6 -16 -24 -21 -24 -7 0 11 11 22 21 22 5 0 6 -7 3 -15z
m-1689 -15 c23 -25 87 -43 124 -35 19 4 32 1 41 -10 11 -13 6 -15 -41 -15 -50
-1 -52 -2 -35 -15 26 -20 86 -19 114 1 20 14 22 14 22 -1 0 -20 -40 -35 -94
-35 -31 0 -55 9 -90 31 -39 26 -76 71 -76 94 0 11 18 4 35 -15z m2524 -36
c-38 -41 -98 -67 -152 -67 -27 1 -51 4 -54 7 -4 3 18 6 48 6 59 0 123 25 153
59 11 11 21 21 24 21 3 0 -5 -12 -19 -26z m-1623 -52 c-4 -3 -14 2 -24 12 -16
18 -16 18 6 6 13 -6 21 -14 18 -18z m672 7 c24 -1 23 -2 -8 -9 -41 -10 -56 -4
-38 17 8 10 14 11 16 4 2 -6 16 -11 30 -12z m242 -160 c0 -4 -4 -11 -10 -14
-5 -3 -10 -16 -10 -29 0 -57 -80 -73 -100 -20 -13 32 -9 39 48 74 43 27 48 28
60 13 6 -9 12 -20 12 -24z m-497 -25 c38 -9 71 -22 74 -29 2 -7 17 -18 33 -25
40 -16 83 -109 94 -202 8 -66 27 -88 58 -69 11 7 21 11 23 9 1 -2 -4 -24 -11
-50 -15 -49 -69 -114 -116 -137 -15 -8 -36 -22 -46 -31 -10 -10 -29 -21 -43
-25 l-24 -7 26 28 c14 16 37 56 50 89 30 75 32 215 4 280 -41 96 -138 154
-237 141 -61 -8 -90 -27 -118 -73 -20 -35 -19 -60 3 -46 23 14 50 13 74 -2 68
-45 -24 -164 -109 -141 -37 9 -78 48 -87 83 -8 27 -5 43 20 92 36 71 86 109
167 126 63 13 67 13 165 -11z m-5 -73 c90 -46 118 -113 88 -212 -15 -53 -75
-137 -118 -168 -13 -8 -52 -15 -97 -17 l-76 -3 58 13 c73 17 123 57 160 127
34 64 33 119 -3 193 -24 50 -36 58 -110 74 l-45 10 53 1 c34 1 66 -6 90 -18z
m-616 -41 c19 -23 24 -60 9 -60 -5 0 -14 7 -21 15 -9 11 -17 12 -32 4 -10 -6
-33 -9 -51 -7 -30 3 -32 6 -30 38 1 19 2 37 2 39 1 2 24 1 53 -1 38 -4 57 -12
70 -28z m529 -11 c34 -26 39 -36 39 -70 0 -75 -39 -120 -115 -133 l-40 -7 34
18 c53 28 76 66 75 124 0 37 -6 55 -24 74 -32 34 -16 31 31 -6z m704 -3 c37
-37 24 -60 -32 -53 -39 4 -46 2 -55 -18 -13 -28 14 -71 50 -81 26 -7 98 21
111 44 6 11 10 4 13 -22 4 -36 3 -38 -50 -63 -95 -45 -178 -13 -184 70 -2 30
-6 37 -19 34 -22 -6 -13 31 14 58 61 60 112 70 152 31z m-1245 -76 c0 -5 -7
-16 -16 -24 -24 -24 -71 -20 -102 10 l-27 26 50 -6 c28 -4 57 -2 65 3 15 10
30 6 30 -9z m29 -76 c-13 -14 -41 -35 -62 -46 -76 -38 -46 2 34 46 56 31 57
31 28 0z m134 -124 c45 -78 168 -184 275 -239 49 -25 112 -27 213 -6 80 17
153 47 184 74 11 10 34 26 51 34 59 30 144 134 144 177 0 16 8 11 41 -25 40
-44 123 -85 170 -85 19 0 17 -6 -22 -77 -62 -113 -109 -172 -210 -260 -99 -85
-159 -121 -259 -153 -203 -66 -451 -12 -646 141 -123 96 -120 93 -179 194 -44
78 -105 219 -105 247 0 5 12 1 27 -9 60 -40 199 -10 239 52 l16 25 18 -23 c9
-12 29 -42 43 -67z m402 50 c-10 -16 -82 -50 -105 -50 -35 0 -12 19 30 26 22
4 48 13 57 20 22 16 26 17 18 4z m731 -15 c-11 -8 -27 -15 -35 -15 -9 1 -2 7
14 15 39 18 44 18 21 0z m76 -27 c-8 -8 -9 -4 -5 13 4 13 8 18 11 10 2 -7 -1
-18 -6 -23z m-692 -28 c-12 -16 -24 -30 -26 -30 -3 0 4 14 16 30 12 17 24 30
26 30 3 0 -4 -13 -16 -30z m43 -7 c-8 -24 -33 -53 -57 -65 -11 -6 -3 9 20 35
44 52 46 54 37 30z m-1145 -61 c12 -69 1 -57 -14 14 -6 30 -7 51 -3 47 4 -5
12 -32 17 -61z m1802 59 c0 -11 -39 -59 -40 -49 0 14 23 58 32 58 4 0 8 -4 8
-9z m-1070 -23 c0 -6 -6 -5 -15 2 -8 7 -15 14 -15 16 0 2 7 1 15 -2 8 -4 15
-11 15 -16z m-680 -89 c0 -6 -4 -7 -10 -4 -5 3 -10 11 -10 16 0 6 5 7 10 4 6
-3 10 -11 10 -16z m70 -161 c5 -15 7 -28 6 -28 -2 0 -20 25 -40 55 -23 35 -36
66 -36 87 0 32 1 30 31 -26 17 -32 35 -72 39 -88z m80 -101 c0 -5 14 -26 30
-47 17 -21 30 -42 30 -47 0 -5 26 -36 58 -68 40 -41 48 -53 27 -41 -75 45
-215 221 -198 249 6 10 53 -31 53 -46z m1583 -44 c-52 -71 -95 -122 -109 -127
-7 -3 3 16 23 42 75 100 152 175 86 85z m-1253 -221 c3 -3 -18 7 -46 22 -29
16 -71 48 -95 73 -41 42 -38 41 46 -22 50 -37 92 -70 95 -73z m1110 65 c0 -2
-10 -12 -22 -23 l-23 -19 19 23 c18 21 26 27 26 19z m-100 -22 c0 -13 -87 -57
-157 -79 -98 -31 -213 -59 -219 -54 -2 3 40 17 94 32 77 22 168 56 280 105 1
1 2 -1 2 -4z m-30 -79 c0 -2 -7 -7 -16 -10 -8 -3 -12 -2 -9 4 6 10 25 14 25 6z
m-882 -46 c29 -11 63 -20 76 -20 13 0 40 -7 59 -15 20 -8 65 -16 99 -17 l63
-2 -53 -3 c-57 -4 -208 27 -277 58 -55 24 -32 24 33 -1z m89 14 c-3 -3 -12 -4
-19 -1 -8 3 -5 6 6 6 11 1 17 -2 13 -5z m563 -49 c0 -11 -77 -36 -105 -33 -24
2 -18 6 35 20 36 9 66 17 68 17 1 1 2 -1 2 -4z"/>
<path d="M2975 4701 c-9 -54 -61 -129 -102 -149 -40 -19 -42 -29 -7 -42 34
-13 37 -13 31 5 -4 8 -1 17 5 21 7 4 8 3 4 -4 -11 -19 26 -14 50 6 33 28 74
89 74 112 0 28 -27 90 -39 90 -5 0 -12 -18 -16 -39z m-6 -108 c-36 -41 -36
-38 1 24 15 27 26 37 28 28 2 -9 -11 -32 -29 -52z"/>
<path d="M2900 4481 c0 -6 17 -18 38 -27 35 -16 44 -18 84 -22 19 -2 47 -29
81 -77 20 -28 20 -29 2 -15 -11 8 -37 29 -58 47 -23 21 -48 33 -66 33 -16 0
-31 6 -35 15 -7 18 -29 19 -59 3 -12 -7 -23 -14 -25 -15 -2 -1 4 -13 13 -27
16 -24 16 -27 -5 -53 -21 -26 -22 -26 -17 -5 7 28 -22 102 -39 102 -14 0 -14
-33 -1 -46 17 -17 6 -64 -18 -79 -14 -8 -37 -22 -51 -31 -44 -27 -13 -34 61
-14 96 27 138 78 106 130 -14 21 -2 33 17 17 10 -7 36 -19 58 -25 47 -14 117
-86 169 -175 63 -107 70 -117 84 -117 22 0 6 53 -34 112 -19 29 -35 60 -35 68
0 23 -55 113 -89 148 -21 20 -48 34 -83 42 -29 6 -63 13 -75 16 -14 4 -23 2
-23 -5z"/>
<path d="M2888 3805 c-2 -3 -42 -12 -89 -20 -99 -18 -171 -43 -163 -56 3 -5
13 -5 24 1 10 5 30 10 43 10 13 0 60 9 103 21 44 11 89 23 102 26 12 3 22 9
22 14 0 9 -33 13 -42 4z"/>
<path d="M2845 3735 c-83 -15 -257 -52 -279 -61 -19 -7 -21 -24 -3 -24 6 0 30
5 52 10 22 5 51 11 65 14 99 18 227 50 234 57 17 15 3 16 -69 4z"/>
<path d="M2868 3695 c-2 -3 -22 -7 -44 -10 -137 -20 -268 -49 -282 -64 -9 -9
-29 -23 -44 -30 -16 -8 -27 -15 -25 -16 3 -3 223 22 301 35 93 14 116 20 116
31 0 10 -70 5 -162 -13 -31 -5 -62 -8 -69 -6 -8 3 44 15 114 28 70 13 127 27
127 31 0 8 -26 19 -32 14z"/>
<path d="M2062 3587 c-15 -16 -18 -26 -11 -37 8 -13 12 -12 28 7 17 20 19 20
35 5 14 -15 16 -15 16 0 0 16 -30 48 -30 32 0 -5 -4 -3 -8 4 -6 9 -14 7 -30
-11z"/>
<path d="M3015 3565 c-8 -27 -3 -39 18 -42 11 -2 22 7 29 22 14 30 1 48 -14
20 -11 -19 -11 -19 -19 0 -8 20 -8 20 -14 0z"/>
<path d="M3076 3548 c-12 -46 3 -54 22 -13 15 33 15 35 -2 35 -7 0 -16 -10
-20 -22z"/>
<path d="M2305 3550 c-3 -5 6 -20 21 -33 20 -18 27 -33 28 -63 1 -32 5 -40 23
-42 25 -4 53 31 53 65 0 29 -40 67 -54 52 -8 -7 -6 -13 7 -20 10 -6 17 -22 17
-40 0 -18 -4 -28 -10 -24 -5 3 -10 15 -10 26 0 40 -60 103 -75 79z"/>
<path d="M2540 3545 c-18 -22 -2 -38 34 -31 l31 6 -33 -20 c-29 -18 -40 -42
-19 -41 15 1 137 73 137 81 0 24 -130 29 -150 5z"/>
<path d="M2153 3343 c-4 -9 -15 -25 -26 -36 -19 -19 -17 -58 5 -84 17 -21 112
-17 131 5 33 36 20 61 -45 81 -27 9 -38 18 -38 32 0 23 -18 25 -27 2z m12 -53
c-3 -5 -11 -10 -16 -10 -6 0 -7 5 -4 10 3 6 11 10 16 10 6 0 7 -4 4 -10z"/>
<path d="M2865 3348 c-2 -7 -5 -26 -7 -43 -2 -20 -11 -33 -26 -40 -33 -14 -21
-30 23 -30 33 0 43 5 62 34 30 45 29 57 -9 75 -37 19 -38 19 -43 4z m32 -50
c-3 -8 -6 -5 -6 6 -1 11 2 17 5 13 3 -3 4 -12 1 -19z"/>
<path d="M3335 2802 c-47 -11 -90 -15 -130 -11 -33 3 -62 4 -65 1 -8 -6 33
-32 52 -32 10 0 29 -7 41 -15 27 -17 131 -25 169 -13 32 11 45 52 24 73 -8 8
-16 15 -18 14 -2 0 -34 -8 -73 -17z"/>
<path d="M2653 2602 c-16 -10 -12 -74 6 -88 8 -6 14 -25 13 -43 -1 -42 17 -39
51 8 31 44 34 76 11 109 -15 22 -57 29 -81 14z"/>
<path d="M3920 3682 c0 -16 26 -33 43 -27 10 4 26 -9 48 -40 38 -53 70 -73
122 -77 40 -2 77 23 77 53 0 16 -6 17 -49 12 -45 -5 -53 -2 -107 35 -57 40
-134 65 -134 44z"/>
<path d="M3880 3670 c0 -19 27 -64 53 -88 30 -28 50 -76 71 -167 9 -38 26 -83
37 -99 20 -27 21 -33 9 -100 -14 -86 -5 -131 33 -160 40 -30 58 -7 22 28 -23
23 -26 32 -20 64 4 20 18 57 31 84 30 60 30 68 -5 125 -16 27 -34 68 -41 93
-6 25 -23 65 -37 90 -21 35 -28 41 -32 27 -5 -14 -17 -4 -56 48 -47 62 -65 77
-65 55z"/>
<path d="M3871 3606 c-6 -8 -10 -19 -9 -26 2 -7 -22 -19 -58 -29 -34 -10 -85
-32 -113 -50 -45 -29 -54 -32 -82 -22 -21 7 -37 7 -50 1 -29 -16 -45 -100 -19
-100 5 0 11 9 15 19 5 16 14 20 44 18 28 -1 52 8 92 33 64 42 114 65 160 75
44 9 59 22 59 50 0 31 -24 50 -39 31z"/>
</g>
</svg>
